{
    "asset": {
        "version": "2.0",
        "generator": "Open Asset Import Library (assimp v5.0.5eb040c7)"
    },
    "accessors": [
        {
            "bufferView": 0,
            "byteOffset": 0,
            "componentType": 5126,
            "count": 13949,
            "type": "VEC3",
            "max": [
                1.2727789878845215,
                2.9670350551605226,
                1.2767339944839478
            ],
            "min": [
                -1.2727670669555665,
                0.26373401284217837,
                -1.2767339944839478
            ]
        },
        {
            "bufferView": 1,
            "byteOffset": 0,
            "componentType": 5126,
            "count": 13949,
            "type": "VEC3",
            "max": [
                0.9996784329414368,
                0.9998593926429749,
                0.9997274279594421
            ],
            "min": [
                -0.9996750950813294,
                -0.9998628497123718,
                -0.9997841715812683
            ]
        },
        {
            "bufferView": 2,
            "byteOffset": 0,
            "componentType": 5125,
            "count": 81792,
            "type": "SCALAR",
            "max": [
                13948
            ],
            "min": [
                0
            ]
        },
        {
            "bufferView": 3,
            "byteOffset": 0,
            "componentType": 5126,
            "count": 7077,
            "type": "VEC3",
            "max": [
                0.9873470067977905,
                2.5777878761291506,
                1.0713289976119996
            ],
            "min": [
                -1.1725209951400757,
                0.40863698720932009,
                -1.1668800115585328
            ]
        },
        {
            "bufferView": 4,
            "byteOffset": 0,
            "componentType": 5126,
            "count": 7077,
            "type": "VEC3",
            "max": [
                0.9997650980949402,
                0.9998518824577332,
                0.998865008354187
            ],
            "min": [
                -0.9997650980949402,
                -0.9998518824577332,
                -0.998865008354187
            ]
        },
        {
            "bufferView": 5,
            "byteOffset": 0,
            "componentType": 5125,
            "count": 40320,
            "type": "SCALAR",
            "max": [
                7076
            ],
            "min": [
                0
            ]
        }
    ],
    "buffers": [
        {
            "byteLength": 993072,
            "uri": "result.bin"
        }
    ],
    "bufferViews": [
        {
            "buffer": 0,
            "byteOffset": 0,
            "byteLength": 167388,
            "target": 34962
        },
        {
            "buffer": 0,
            "byteOffset": 167388,
            "byteLength": 167388,
            "target": 34962
        },
        {
            "buffer": 0,
            "byteOffset": 334776,
            "byteLength": 327168,
            "target": 34963
        },
        {
            "buffer": 0,
            "byteOffset": 661944,
            "byteLength": 84924,
            "target": 34962
        },
        {
            "buffer": 0,
            "byteOffset": 746868,
            "byteLength": 84924,
            "target": 34962
        },
        {
            "buffer": 0,
            "byteOffset": 831792,
            "byteLength": 161280,
            "target": 34963
        }
    ],
    "materials": [
        {
            "name": "DefaultMaterial",
            "pbrMetallicRoughness": {
                "baseColorFactor": [
                    0.6000000238418579,
                    0.6000000238418579,
                    0.6000000238418579,
                    1.0
                ],
                "metallicFactor": 0.0
            }
        },
        {
            "name": "white",
            "pbrMetallicRoughness": {
                "baseColorFactor": [
                    0.6000000238418579,
                    0.6000000238418579,
                    0.6000000238418579,
                    1.0
                ],
                "metallicFactor": 0.0
            }
        },
        {
            "name": "black",
            "pbrMetallicRoughness": {
                "baseColorFactor": [
                    0.6000000238418579,
                    0.6000000238418579,
                    0.6000000238418579,
                    1.0
                ],
                "metallicFactor": 0.0
            }
        }
    ],
    "meshes": [
        {
            "name": "Dice",
            "primitives": [
                {
                    "mode": 4,
                    "material": 1,
                    "indices": 2,
                    "attributes": {
                        "POSITION": 0,
                        "NORMAL": 1
                    }
                },
                {
                    "mode": 4,
                    "material": 2,
                    "indices": 5,
                    "attributes": {
                        "POSITION": 3,
                        "NORMAL": 4
                    }
                }
            ]
        }
    ],
    "nodes": [
        {
            "name": "input.obj",
            "children": [
                1
            ]
        },
        {
            "name": "Dice",
            "mesh": 0
        }
    ],
    "scenes": [
        {
            "nodes": [
                0
            ]
        }
    ],
    "scene": 0
}