<?xml version="1.0" encoding="utf-8"?>
<!-- Generator: Adobe Illustrator 24.1.1, SVG Export Plug-In . SVG Version: 6.00 Build 0)  -->
<svg version="1.1" xmlns="http://www.w3.org/2000/svg" xmlns:xlink="http://www.w3.org/1999/xlink" x="0px" y="0px"
	 viewBox="0 0 206 337" style="enable-background:new 0 0 206 337;" xml:space="preserve">
<style type="text/css">
	.st0{fill:#FFFFFF;}
	.st1{fill:#FFE0D1;}
	.st2{fill:#FFEFE7;}
</style>
<g id="Layer_2">
</g>
<g id="Layer_4">
	<g>
		<polygon class="st0" points="162,228 190,248 130,323 102,300 		"/>
		<g>
			<path d="M100.4,163.84c1.04-5,1.93-9.73,3.03-14.4c4.7-22.16,28.83-38.42,50.74-31.97c8.7,2.98,16.01,14.69,8.95,22.61
				c-21.88,17.64-17.44,26.79-15.32,52.15c0.73,7.45,1.56,14.89,2.23,22.34c0.2,3.91,4.25,5.19,6.55,7.7
				c1.47,1.46,2.71,2.05,4.66,0.6c2.16-1.61,4.08-0.22,5.83,1.18c7.17,5.7,14.35,11.39,21.52,17.09c2.94,2.2,8.5,5.8,5.03,9.59
				c-1.35,1.62-3.66,1.93-5.89,0.62c-7.34-5.45-14.33-11.43-21.59-17c-2.29-1.8-2.39-1.76-4.29,0.56
				c-16.98,20.76-33.95,41.52-50.9,62.3c-2.2,2.7-2.16,2.78,0.37,4.95c5.95,5.09,11.92,10.16,17.87,15.24
				c2.46,1.65,4.93,4.84,2.6,7.41c-1.53,1.97-3.48,2.36-5.71,1.07c-8.36-6.58-16.29-13.75-24.47-20.58
				c-3.81-3.26-3.86-3.33-2.02-7.9c0.5-1.25,0.1-1.84-0.7-2.52c-2.81-2.42-5.61-5.45-9.44-6.01c-25.92-2.55-42.9-24.14-62.59-38.83
				c-3.98-3.3-7.68-6.87-10.41-11.37c-4.96-8.17-3.14-21.65,6.72-26.45c1.88-0.91,1.66-1.89,1.32-3.55
				c-1.88-8.22,2.16-16.6,9.43-20.68c2.03-1.21,3.1-2.18,3.15-4.87c0.13-7.81,2.63-14.67,10.17-19.13
				c-7.19-5.78-14.17-11.32-21.08-16.95c-7.02-7.04-21.61-13.68-18.19-25.58c2.28-6.75,6.53-11.62,13.75-13.12
				c4.37-0.91,8.14,0.74,11.57,3.45c9.02,7.13,18.09,14.18,27.14,21.26C73.88,143.14,86.59,154.36,100.4,163.84z M40,194.31
				c-7.15,2.02-9.67,11.44-4.99,17.06c0.95,1.15,2.44,1.97,3.05,3.25c1.46,2.84,0.05,7.08-3.77,6.34c-4.34-1.73-8.71-2.61-10.9,2.49
				c-4.92,8.25,3.85,15.06,9.23,20.3c10.16,8.62,20.61,16.88,30.82,25.44c15.8,14.29,27.87,6.37,39.97,18.34
				c2.25,2.25,2.53,2.04,4.62-0.51c8.99-10.94,17.95-21.89,26.93-32.84c5.59-6.83,11.2-13.64,16.77-20.49
				c2.1-2.58,2.08-2.65-0.37-4.79c-3.52-3.57-9.4-5.69-9.39-11.49c-1.51-17.18-4.37-34.24-3.92-51.59
				c-0.44-25.74,27.48-28.51,16.89-37.84c-4.13-3.75-10.11-4.85-15.38-3.12c-13.92,3.79-24.37,11.32-27.78,26.23
				c-1.55,6.78-3.04,13.59-4.42,20.41c-1.1,5.41-2.8,6.25-7.13,3.07c-24.18-18.37-47.92-37.32-71.96-55.9
				c-4.57-4.01-9.18-1.17-11.51,3.62c-2.84,4.45,2.16,7.85,5.03,10.6c12.27,10.24,24.58,20.44,36.88,30.64
				c1.28,1.06,2.69,1.98,3.91,3.1c3.3,4.23,0.43,8.58-4.82,6.81c-2.39-1.24-5.35-3.37-7.8-1.19c-5.55,4.51-6.78,10.85-1.66,15.88
				c0.95,0.93,2.26,1.73,2.72,2.86C53.23,200.54,45.09,196.47,40,194.31z"/>
			<path d="M82.24,57.51c0.12-5.8-0.24-11.68,0.15-17.45c1.13-4.86,7.85-4.88,8.51,0.36c0.18,11.46,0.15,22.97,0.02,34.43
				c-0.45,5.44-7.91,5.34-8.57,0.13C82.04,69.19,82.33,63.32,82.24,57.51z"/>
			<path d="M48.21,83.9c-0.07,5.75-5.43,6.15-8.34,2.78c-6.25-5.24-12.49-10.48-18.71-15.75c-2.31-1.63-4.21-4.77-1.73-7.1
				c1.37-1.43,2.98-2.12,4.93-1.09c7.67,5.78,14.84,12.35,22.24,18.49C47.51,82.01,47.92,83.4,48.21,83.9z"/>
			<path d="M131.15,309.17c-14.43,0.02-14.32-20.99-0.07-21.17C145.01,288.33,145.24,308.84,131.15,309.17z M130.83,294.06
				c-5.89,0.56-5.82,9.01,0.3,9.12C137.14,302.94,136.67,293.99,130.83,294.06z"/>
			<path d="M131.23,22.23c4.87,0.14,8.68,4.21,8.57,9.16c-0.1,4.39-3.96,8.36-8.19,8.47c-1.66,0.04-3-0.44-3.44-2.18
				c-1.67-4.77,8.24-3.36,4.82-8.23c-2.25-2.59-4.56,0.18-5.03,2.6c-1.19,3.51-6.38,1.87-5.74-1.61
				C122.4,25.93,126.59,22.11,131.23,22.23z"/>
			<path d="M128.22,89.5c-2.97,5.71-9.4,8.97-14,13.36c-2.82,2.89-8.36,0.16-7.14-3.91c0.22-0.9,0.78-1.87,1.47-2.47
				c4-3.47,8-6.95,12.16-10.21C124.32,83.49,127.7,85.61,128.22,89.5z"/>
			<path d="M48.42,44.66c-1.61-0.53-3.92-4.15-5.78-1.95c-2.15,3.16-8.38,1.11-5.64-2.83c2.5-2.01,2.36-3.91,0.02-6.04
				c-1.12-1.02-0.89-2.43,0.13-3.58c1.66-2.08,4.08-0.84,5.49,0.83c1.67,2.06,2.99-0.34,4.4-1.34c3.99-2.34,6.64,3.16,2.9,5.68
				c-2.37,1.92,1.12,3.46,1.71,5.3C52.37,42.46,50.84,44.58,48.42,44.66z"/>
			<path d="M154.96,67.26c-0.27,0.5-0.58,1.75-1.37,2.45c-3.75,3.3-7.52,6.6-11.56,9.53c-1.07,0.78-3.28,0.75-4.63,0.23
				c-2.49-0.95-3.07-4.3-0.97-6.26c3.89-3.63,7.96-7.1,12.25-10.24C151.41,60.98,155.02,63.29,154.96,67.26z"/>
			<path d="M62.77,104.32c-3.86-0.8-5.82-3.35-8.56-5.75c-1.59-1.63-1.47-3.8-0.12-5.42c1.35-1.61,3.57-2.2,5.33-0.98
				C64.11,95.74,70.86,99.8,62.77,104.32z"/>
			<path d="M90.96,20.87c0.49,4.97-6.7,7.09-8.41,1.65c-0.92-3.42-0.22-9.02,4.01-9.16C90.13,13.31,91.37,17.11,90.96,20.87z"/>
			<path class="st1" d="M156.59,134.4c-1.59,2.57-5.41,5.26-9.17,9.08c-4.82,4.89-9.56,11.63-9.37,22.33
				c-0.28,13.67,1.25,27.17,2.79,40.68c2.01,13.67-1.44,13.46,10.51,22.41c2.46,2.14,2.47,2.21,0.37,4.79
				c-13.71,16.79-27.46,33.54-41.22,50.29c-0.82,1.01-1.65,2.02-2.48,3.03c-0.12,0.15-0.24,0.29-0.35,0.42
				c-1.78,2.15-2.15,2.21-4.27,0.1c-12.01-11.93-24.21-4.08-39.97-18.34c-10.2-8.56-20.66-16.83-30.82-25.44
				c-5.38-5.23-14.14-12.05-9.22-20.3c0.96-2.2,2.3-3.29,3.87-3.67c0.35-0.09,0.72-0.14,1.1-0.16h0.01c1.82-0.1,3.86,0.54,5.92,1.34
				c1.73,0.32,2.95-0.35,3.65-1.45c0.34-0.54,0.56-1.19,0.64-1.87c0.12-1.01-0.05-2.09-0.52-3.03c-0.61-1.27-2.1-2.1-3.05-3.24
				c-4.44-5.36-2.4-14.14,3.98-16.71c0.15-0.06,0.29-0.12,0.44-0.17c0.18-0.06,0.37-0.12,0.57-0.18c3.97,1.68,9.73,4.5,11.09,1.22
				c0.2-0.48,0.31-1.09,0.3-1.86c-0.01-0.74-0.13-1.63-0.37-2.7c-0.45-1.13-1.76-1.93-2.71-2.86c-5.12-5.02-3.89-11.37,1.66-15.88
				c0.59-0.49,1.18-0.76,1.78-0.86c0,0,0,0,0.01,0c0.08-0.01,0.15-0.02,0.23-0.03c3.75-0.38,7.72,5.13,11.5,0.94
				c0.04-0.04,0.08-0.09,0.12-0.13c0.26-0.61,0.38-1.18,0.39-1.73c0.11-2.99-2.91-5.23-5.32-6.91
				c-12.31-10.2-24.61-20.4-36.89-30.64c-4.53-3.88-8.45-7.45-3.43-13.12c1.24-1.49,2.49-2.43,3.79-2.83
				c0.1-0.03,0.2-0.06,0.29-0.08c1.8-0.44,3.71,0.16,5.83,1.81c15.71,12.33,31.45,24.61,47.39,36.64
				c7.86,6.82,16.16,13.11,24.57,19.26c3.17,2.34,4.93,2.51,6.08,0.31c0.26-0.49,0.48-1.1,0.69-1.83c0.12-0.46,0.24-0.98,0.36-1.54
				c1.38-6.82,2.87-13.63,4.42-20.41c2.03-8.89,6.57-15.16,12.85-19.56c1.1-0.78,2.25-1.49,3.45-2.15
				c3.45-1.91,7.31-3.39,11.48-4.52c5.26-1.71,11.26-0.63,15.38,3.13C157.69,130.38,157.85,132.35,156.59,134.4z"/>
			<path class="st0" d="M130.83,294.06c5.84-0.07,6.31,8.89,0.3,9.12C125.01,303.06,124.94,294.61,130.83,294.06z"/>
		</g>
		<path class="st2" d="M138.05,165.81c-0.28,13.67,1.25,27.17,2.79,40.68c2.01,13.67-1.44,13.46,10.51,22.41
			c2.46,2.14,2.47,2.21,0.37,4.79c-13.71,16.79-27.46,33.54-41.22,50.29c-0.42-0.23-0.91-0.68-1.57-1.34
			c-12.01-11.93-24.21-4.08-39.96-18.34c-10.21-8.56-20.67-16.82-30.82-25.44c-5.15-5-13.4-11.46-9.79-19.24h0.01
			c1.82-0.1,3.86,0.54,5.92,1.34c1.73,0.32,2.95-0.35,3.65-1.45c0.34-0.54,0.56-1.19,0.64-1.87c1.06-0.12,1.85-0.7,2.36-1.5
			c2.97-0.22,3.93-3.85,2.65-6.41c-0.61-1.28-2.1-2.1-3.05-3.25c-2.85-3.43-3.03-8.28-1.11-11.99c0.18-0.06,0.37-0.12,0.57-0.18
			c3.97,1.68,9.73,4.5,11.09,1.22c0.2-0.48,0.31-1.09,0.3-1.86c1.25,0.02,2.23-0.39,2.7-1.51c2.21-0.04,3.51-1.5,2.46-6.08
			c-0.45-1.13-1.76-1.92-2.71-2.86c-3.74-3.67-4.09-8.04-1.85-11.88c3.75-0.38,7.72,5.13,11.5,0.94c0.04-0.04,0.08-0.09,0.12-0.13
			c0.26-0.61,0.38-1.18,0.39-1.73c0.84-0.15,1.67-0.6,2.49-1.51c0.89-0.15,1.78-0.63,2.65-1.65c1.64-3.87-2.08-6.64-4.93-8.64
			c-12.31-10.2-24.61-20.4-36.89-30.64c-3.98-3.41-7.49-6.58-4.88-11.14c1.8-0.44,3.71,0.16,5.83,1.81
			c15.71,12.33,31.45,24.61,47.39,36.64c7.86,6.82,16.16,13.11,24.57,19.26c3.17,2.34,4.93,2.51,6.08,0.31
			c0.26-0.49,0.48-1.1,0.69-1.83c1,0.08,1.73-0.43,2.31-1.54c1.85,0.28,2.85-1.3,3.58-4.89c1.38-6.82,2.87-13.62,4.42-20.41
			c1.37-6.01,3.89-10.82,7.32-14.67c1.1-0.78,2.25-1.49,3.45-2.15c3.45-1.91,7.31-3.39,11.48-4.52c5.26-1.71,11.26-0.63,15.38,3.13
			c2.75,2.4,2.91,4.37,1.65,6.42c-2.6,2.43-6.13,5.25-9.17,9.08C142.6,148.37,137.86,155.11,138.05,165.81z"/>
	</g>
</g>
</svg>
